<?xml version="1.0" standalone="no"?><!-- Generator: Gravit.io --><svg xmlns="http://www.w3.org/2000/svg" xmlns:xlink="http://www.w3.org/1999/xlink" style="isolation:isolate" viewBox="0 0 800 600" width="800" height="600"><defs><clipPath id="_clipPath_YYuf9q5rR0R4uBLXdmnncottAnOx1lm0"><rect width="800" height="600"/></clipPath></defs><g clip-path="url(#_clipPath_YYuf9q5rR0R4uBLXdmnncottAnOx1lm0)"><path d=" M 113.223 215.178 C 149.823 91.414 264.436 1 400 1 C 535.564 1 650.178 91.414 686.778 215.178 L 662.538 216.793 C 627.232 105.437 522.976 24.645 400 24.645 C 277.024 24.645 172.769 105.437 137.462 216.792 L 113.223 215.178 Z  M 697.758 327.407 C 697.693 328.12 697.626 328.832 697.556 329.544 L 694.345 328.902 L 697.758 327.407 Z  M 696.377 339.743 C 676.916 486.006 551.55 599 400 599 C 248.45 599 123.083 486.006 103.623 339.741 L 128.87 348.267 C 151.716 477.259 264.493 575.355 400 575.355 C 535.507 575.355 648.284 477.26 671.13 348.269 L 696.377 339.743 Z  M 102.444 329.545 C 102.374 328.832 102.307 328.119 102.242 327.405 L 105.659 328.902 L 102.444 329.545 Z " fill-rule="evenodd" fill="rgb(255,0,0)"/><path d=" M 146.5 221.599 C 158.991 179.613 181.513 140.865 212.627 108.921 C 261.856 58.509 329.27 29.828 399.788 29.68 C 470.159 29.828 537.72 58.509 586.802 108.921 C 618.264 141.223 640.941 180.482 653.345 223.012 L 645.785 223.504 C 633.616 182.709 611.715 145.068 581.48 114.095 C 533.728 65.013 468.237 37.22 399.788 37.072 C 331.34 37.22 265.7 65.013 217.949 114.095 C 188.044 144.73 166.292 181.886 154.046 222.167 L 146.5 221.599 Z  M 661.013 342.641 C 652.341 398.228 626.599 450.219 586.802 491.079 C 537.72 541.639 470.159 570.172 399.788 570.32 C 329.27 570.172 261.856 541.639 212.627 491.079 C 173.669 451.081 148.18 400.416 138.987 346.153 L 147.089 349.48 C 156.664 400.572 181.125 448.183 217.949 485.905 C 265.7 534.987 331.34 562.78 399.788 562.928 C 468.237 562.78 533.728 534.987 581.48 485.905 C 619.091 447.376 643.806 398.529 652.934 346.195 L 661.013 342.641 Z " fill-rule="evenodd" fill="rgb(255,0,0)"/><path d=" M 400 75.845 L 385.031 106.175 L 351.56 111.039 L 375.78 134.647 L 370.062 167.983 L 400 152.244 L 429.938 167.983 L 424.22 134.647 L 448.44 111.039 L 414.969 106.175 L 400 75.845 Z " fill="rgb(255,0,0)"/><path d=" M 280.103 127.892 L 281.62 151.144 L 263.325 165.576 L 285.908 171.318 L 293.98 193.178 L 306.42 173.474 L 329.704 172.552 L 314.809 154.632 L 321.127 132.203 L 299.482 140.831 L 280.103 127.892 Z " fill="rgb(255,0,0)"/><path d=" M 476.977 132.935 L 484.461 155.003 L 470.524 173.678 L 493.824 173.38 L 507.279 192.405 L 514.196 170.154 L 536.447 163.237 L 517.422 149.782 L 517.72 126.482 L 499.045 140.419 L 476.977 132.935 Z " fill="rgb(255,0,0)"/><path d=" M 260.355 376.793 L 258.074 377.455 L 202.301 363.854 L 258.76 347.458 L 258.76 361.424 L 259.917 375.5 L 260.355 376.793 Z  M 258.76 342.903 L 195.788 355.364 L 141.412 336.954 L 247.136 316.032 L 139.578 327.704 L 87.014 304.624 L 208.281 291.464 L 89.514 293.939 L 39.161 266.365 L 183.85 263.351 L 49.342 254.402 L 1.584 222.545 L 283.742 241.317 C 286.744 251.015 293.629 260.19 303.494 268.264 L 303.494 286.527 C 302.087 286.077 300.716 285.719 299.252 285.453 C 296.745 285.067 294.431 284.874 291.925 284.874 C 291.732 284.874 291.539 284.874 291.154 284.874 L 285.369 285.26 L 277.849 287.381 L 270.136 292.202 L 263.773 300.493 L 260.302 310.712 C 260.302 311.098 260.11 311.484 260.11 311.869 C 259.531 313.99 259.146 316.111 258.953 318.232 C 258.76 320.932 258.76 323.824 258.76 326.523 L 258.76 342.903 Z  M 494.385 269.948 C 505.385 261.476 513.046 251.695 516.258 241.317 L 798.416 222.545 L 750.658 254.402 L 616.15 263.351 L 760.839 266.365 L 710.487 293.939 L 591.719 291.464 L 712.986 304.624 L 660.422 327.704 L 552.864 316.032 L 658.588 336.954 L 604.212 355.364 L 529.826 340.644 L 519.644 285.646 L 494.385 285.646 L 494.385 269.948 Z  M 530.51 344.342 L 597.699 363.854 L 541.926 377.455 L 536.34 375.833 L 530.51 344.342 Z " fill="rgb(255,0,0)"/><g id="Group"><path d=" M 345.513 471.505 Q 343.966 471.505 342.155 471.259 Q 340.344 471.014 338.57 470.222 Q 336.797 469.429 335.156 467.977 Q 333.514 466.524 332.25 464.147 Q 330.986 461.769 330.231 458.279 Q 329.477 454.789 329.477 449.959 L 329.477 427.13 Q 329.477 422.263 330.25 418.81 Q 331.024 415.358 332.307 412.999 Q 333.59 410.641 335.231 409.245 Q 336.873 407.849 338.665 407.113 Q 340.457 406.377 342.231 406.151 Q 344.004 405.924 345.513 405.924 Q 346.947 405.924 348.702 406.132 Q 350.456 406.34 352.211 407.038 Q 353.966 407.736 355.626 409.113 Q 357.286 410.49 358.569 412.848 Q 359.852 415.207 360.626 418.697 Q 361.399 422.187 361.399 427.13 L 361.399 449.959 Q 361.399 454.751 360.607 458.204 Q 359.814 461.656 358.531 464.052 Q 357.248 466.448 355.569 467.901 Q 353.89 469.354 352.136 470.165 Q 350.381 470.976 348.645 471.24 Q 346.91 471.505 345.513 471.505 Z  M 345.513 464.147 Q 346.947 464.147 348.023 463.656 Q 349.098 463.166 349.796 461.958 Q 350.494 460.751 350.853 458.77 Q 351.211 456.789 351.211 453.77 L 351.211 424.451 Q 351.211 421.357 350.853 419.282 Q 350.494 417.207 349.796 415.943 Q 349.098 414.679 348.023 414.15 Q 346.947 413.622 345.513 413.622 Q 344.042 413.622 342.948 414.15 Q 341.853 414.679 341.136 415.943 Q 340.419 417.207 340.061 419.282 Q 339.702 421.357 339.702 424.451 L 339.702 453.77 Q 339.702 456.789 340.061 458.77 Q 340.419 460.751 341.136 461.958 Q 341.853 463.166 342.948 463.656 Q 344.042 464.147 345.513 464.147 Z " fill-rule="evenodd" fill="rgb(255,0,0)"/><path d=" M 370.644 470.939 L 370.644 406.49 L 380.417 406.49 Q 382.265 406.49 384.473 406.66 Q 386.68 406.83 388.888 407.453 Q 391.095 408.075 393.151 409.358 Q 395.208 410.641 396.793 412.848 Q 398.377 415.056 399.34 418.376 Q 400.302 421.697 400.302 426.451 L 400.302 428.715 Q 400.302 433.885 399.415 437.564 Q 398.528 441.243 397.057 443.752 Q 395.585 446.261 393.642 447.77 Q 391.699 449.28 389.605 450.053 Q 387.51 450.827 385.378 451.072 Q 383.246 451.317 381.36 451.317 L 380.417 451.317 L 380.417 470.939 L 370.644 470.939 Z  M 380.417 444.148 L 380.907 444.148 Q 383.548 444.148 385.36 443.375 Q 387.171 442.601 388.246 440.96 Q 389.322 439.318 389.793 436.734 Q 390.265 434.149 390.265 430.526 L 390.265 424.716 Q 390.265 421.848 389.85 419.754 Q 389.435 417.659 388.359 416.301 Q 387.284 414.943 385.473 414.282 Q 383.662 413.622 380.907 413.622 L 380.417 413.622 L 380.417 444.148 Z " fill-rule="evenodd" fill="rgb(255,0,0)"/><path d=" M 407.698 470.939 L 407.698 406.49 L 431.583 406.49 L 431.583 414.188 L 417.47 414.188 L 417.47 433.47 L 428.375 433.47 L 428.375 441.167 L 417.47 441.167 L 417.47 463.241 L 431.96 463.241 L 431.96 470.939 L 407.698 470.939 Z " fill="rgb(255,0,0)"/><path d=" M 439.016 470.939 L 439.016 406.49 L 446.94 406.49 L 462.561 449.619 L 462.788 449.619 L 462.788 449.619 Q 462.675 448.11 462.486 446.261 L 462.486 446.261 L 462.486 446.261 Q 462.297 444.412 462.146 442.054 L 462.146 442.054 L 462.146 442.054 Q 461.995 439.696 461.882 436.715 L 461.882 436.715 L 461.882 436.715 Q 461.769 433.734 461.769 429.998 L 461.769 429.998 L 461.769 406.49 L 470.523 406.49 L 470.523 470.939 L 462.524 470.939 L 446.978 428.942 L 446.676 428.942 L 446.676 428.942 Q 446.789 430.64 446.978 432.621 L 446.978 432.621 L 446.978 432.621 Q 447.166 434.602 447.317 437.281 L 447.317 437.281 L 447.317 437.281 Q 447.468 439.96 447.581 443.526 L 447.581 443.526 L 447.581 443.526 Q 447.695 447.091 447.695 451.997 L 447.695 451.997 L 447.695 470.939 L 439.016 470.939 Z " fill="rgb(255,0,0)"/><path d=" M 293.037 392.993 L 293.037 392.993 L 293.037 392.993 Q 290.756 392.993 288.105 392.622 L 288.105 392.622 L 288.105 392.622 Q 285.454 392.252 282.803 391.054 L 282.803 391.054 L 282.803 391.054 Q 280.151 389.857 277.728 387.662 L 277.728 387.662 L 277.728 387.662 Q 275.305 385.467 273.452 381.875 L 273.452 381.875 L 273.452 381.875 Q 271.599 378.283 270.487 373.009 L 270.487 373.009 L 270.487 373.009 Q 269.375 367.735 269.375 360.436 L 269.375 360.436 L 269.375 325.941 L 269.375 325.941 Q 269.375 318.586 270.515 313.369 L 270.515 313.369 L 270.515 313.369 Q 271.656 308.152 273.537 304.589 L 273.537 304.589 L 273.537 304.589 Q 275.419 301.025 277.871 298.916 L 277.871 298.916 L 277.871 298.916 Q 280.322 296.806 282.945 295.694 L 282.945 295.694 L 282.945 295.694 Q 285.568 294.582 288.162 294.24 L 288.162 294.24 L 288.162 294.24 Q 290.756 293.898 292.98 293.898 L 292.98 293.898 L 292.98 293.898 Q 298.796 293.898 302.701 295.523 L 302.701 295.523 L 302.701 295.523 Q 306.607 297.148 308.973 299.97 L 308.973 299.97 L 308.973 299.97 Q 311.339 302.793 312.337 306.556 L 312.337 306.556 L 312.337 306.556 Q 313.335 310.319 313.335 314.538 L 313.335 314.538 L 313.335 314.538 Q 313.335 317.674 313.021 320.325 L 313.021 320.325 L 313.021 320.325 Q 312.708 322.977 312.081 326.17 L 312.081 326.17 L 300.107 326.17 L 300.107 321.209 L 300.107 321.209 Q 300.107 313.17 298.34 309.179 L 298.34 309.179 L 298.34 309.179 Q 296.572 305.187 293.151 305.187 L 293.151 305.187 L 293.151 305.187 Q 291.098 305.187 289.559 305.986 L 289.559 305.986 L 289.559 305.986 Q 288.02 306.784 286.993 308.694 L 286.993 308.694 L 286.993 308.694 Q 285.967 310.604 285.425 313.74 L 285.425 313.74 L 285.425 313.74 Q 284.884 316.876 284.884 321.551 L 284.884 321.551 L 284.884 366.024 L 284.884 366.024 Q 284.884 370.585 285.311 373.607 L 285.311 373.607 L 285.311 373.607 Q 285.739 376.629 286.708 378.454 L 286.708 378.454 L 286.708 378.454 Q 287.677 380.278 289.245 381.048 L 289.245 381.048 L 289.245 381.048 Q 290.813 381.818 293.037 381.818 L 293.037 381.818 L 293.037 381.818 Q 294.462 381.818 295.774 381.162 L 295.774 381.162 L 295.774 381.162 Q 297.085 380.506 298.083 379.109 L 298.083 379.109 L 298.083 379.109 Q 299.081 377.712 299.679 375.574 L 299.679 375.574 L 299.679 375.574 Q 300.278 373.436 300.278 370.528 L 300.278 370.528 L 300.278 361.007 L 313.791 361.007 L 313.791 370.015 L 313.791 370.015 Q 313.791 381.761 308.431 387.348 L 308.431 387.348 L 308.431 387.348 Q 303.072 392.936 293.037 392.993 Z " fill="rgb(255,0,0)"/><path d=" M 325.422 392.138 L 325.422 294.753 L 340.19 294.753 L 340.19 335.52 L 357.694 335.52 L 357.694 294.753 L 372.461 294.753 L 372.461 392.138 L 357.694 392.138 L 357.694 347.152 L 340.19 347.152 L 340.19 392.138 L 325.422 392.138 Z " fill="rgb(255,0,0)"/><path d=" M 389.224 392.138 L 389.224 294.753 L 403.991 294.753 L 403.991 392.138 L 389.224 392.138 Z " fill="rgb(255,0,0)"/><path d=" M 420.64 392.138 L 420.64 294.753 L 432.613 294.753 L 456.218 359.923 L 456.56 359.923 L 456.56 359.923 Q 456.389 357.643 456.104 354.849 L 456.104 354.849 L 456.104 354.849 Q 455.819 352.055 455.591 348.491 L 455.591 348.491 L 455.591 348.491 Q 455.363 344.928 455.192 340.424 L 455.192 340.424 L 455.192 340.424 Q 455.021 335.919 455.021 330.275 L 455.021 330.275 L 455.021 294.753 L 468.249 294.753 L 468.249 392.138 L 456.161 392.138 L 432.67 328.678 L 432.214 328.678 L 432.214 328.678 Q 432.385 331.244 432.67 334.237 L 432.67 334.237 L 432.67 334.237 Q 432.956 337.231 433.184 341.279 L 433.184 341.279 L 433.184 341.279 Q 433.412 345.327 433.583 350.715 L 433.583 350.715 L 433.583 350.715 Q 433.754 356.103 433.754 363.515 L 433.754 363.515 L 433.754 392.138 L 420.64 392.138 Z " fill="rgb(255,0,0)"/><path d=" M 477.657 392.138 L 495.617 294.753 L 512.608 294.753 L 530.625 392.138 L 515.687 392.138 L 513.007 374.691 L 495.218 374.691 L 492.652 392.138 L 477.657 392.138 Z  M 496.928 363.572 L 511.296 363.572 L 504.454 315.051 L 503.827 315.051 L 496.928 363.572 Z " fill-rule="evenodd" fill="rgb(255,0,0)"/><path d=" M 314.1 280.442 L 314.1 220.679 L 321.448 220.679 L 335.934 260.672 L 336.144 260.672 L 336.144 260.672 Q 336.039 259.273 335.864 257.558 L 335.864 257.558 L 335.864 257.558 Q 335.689 255.844 335.549 253.657 L 335.549 253.657 L 335.549 253.657 Q 335.409 251.47 335.304 248.706 L 335.304 248.706 L 335.304 248.706 Q 335.199 245.942 335.199 242.478 L 335.199 242.478 L 335.199 220.679 L 343.316 220.679 L 343.316 280.442 L 335.899 280.442 L 321.483 241.498 L 321.203 241.498 L 321.203 241.498 Q 321.308 243.073 321.483 244.91 L 321.483 244.91 L 321.483 244.91 Q 321.658 246.747 321.798 249.231 L 321.798 249.231 L 321.798 249.231 Q 321.938 251.715 322.043 255.022 L 322.043 255.022 L 322.043 255.022 Q 322.148 258.328 322.148 262.877 L 322.148 262.877 L 322.148 280.442 L 314.1 280.442 Z " fill="rgb(255,0,0)"/><path d=" M 366.76 280.967 Q 365.325 280.967 363.646 280.739 Q 361.966 280.512 360.321 279.777 Q 358.677 279.042 357.155 277.695 Q 355.633 276.348 354.461 274.144 Q 353.289 271.939 352.589 268.703 Q 351.889 265.466 351.889 260.987 L 351.889 239.819 Q 351.889 235.305 352.606 232.103 Q 353.324 228.902 354.513 226.715 Q 355.703 224.528 357.225 223.233 Q 358.747 221.939 360.409 221.256 Q 362.071 220.574 363.716 220.364 Q 365.36 220.154 366.76 220.154 Q 368.089 220.154 369.716 220.347 Q 371.343 220.539 372.97 221.186 Q 374.597 221.834 376.137 223.111 Q 377.676 224.388 378.866 226.575 Q 380.056 228.762 380.773 231.998 Q 381.49 235.235 381.49 239.819 L 381.49 260.987 Q 381.49 265.431 380.756 268.633 Q 380.021 271.834 378.831 274.056 Q 377.641 276.278 376.084 277.625 Q 374.527 278.972 372.9 279.724 Q 371.273 280.477 369.664 280.722 Q 368.054 280.967 366.76 280.967 Z  M 366.76 274.144 Q 368.089 274.144 369.086 273.689 Q 370.084 273.234 370.731 272.114 Q 371.378 270.994 371.711 269.158 Q 372.043 267.321 372.043 264.521 L 372.043 237.334 Q 372.043 234.465 371.711 232.541 Q 371.378 230.616 370.731 229.444 Q 370.084 228.272 369.086 227.782 Q 368.089 227.292 366.76 227.292 Q 365.395 227.292 364.38 227.782 Q 363.366 228.272 362.701 229.444 Q 362.036 230.616 361.704 232.541 Q 361.371 234.465 361.371 237.334 L 361.371 264.521 Q 361.371 267.321 361.704 269.158 Q 362.036 270.994 362.701 272.114 Q 363.366 273.234 364.38 273.689 Q 365.395 274.144 366.76 274.144 Z " fill-rule="evenodd" fill="rgb(255,0,0)"/><path d=" M 390.063 280.442 L 390.063 220.679 L 399.895 220.679 Q 401.575 220.679 403.586 220.819 Q 405.598 220.959 407.61 221.501 Q 409.622 222.044 411.494 223.128 Q 413.366 224.213 414.818 226.102 Q 416.27 227.992 417.145 230.844 Q 418.02 233.695 418.02 237.754 L 418.02 239.259 Q 418.02 246.082 416.06 250.368 Q 414.101 254.654 410.287 256.544 L 419.874 280.442 L 410.287 280.442 L 402.344 258.083 L 398.95 258.083 L 398.95 280.442 L 390.063 280.442 Z  M 398.95 251.54 L 400.315 251.54 Q 402.694 251.54 404.339 251.015 Q 405.983 250.49 406.998 249.248 Q 408.013 248.006 408.468 245.959 Q 408.922 243.912 408.922 240.903 L 408.922 236.18 Q 408.922 233.87 408.503 232.191 Q 408.083 230.511 407.085 229.427 Q 406.088 228.342 404.444 227.817 Q 402.799 227.292 400.315 227.292 L 398.95 227.292 L 398.95 251.54 Z " fill-rule="evenodd" fill="rgb(255,0,0)"/><path d=" M 432.261 280.442 L 432.261 227.817 L 422.638 227.817 L 422.638 220.679 L 450.91 220.679 L 450.91 227.817 L 441.323 227.817 L 441.323 280.442 L 432.261 280.442 Z " fill="rgb(255,0,0)"/><path d=" M 457.033 280.442 L 457.033 220.679 L 466.096 220.679 L 466.096 245.697 L 476.838 245.697 L 476.838 220.679 L 485.9 220.679 L 485.9 280.442 L 476.838 280.442 L 476.838 252.835 L 466.096 252.835 L 466.096 280.442 L 457.033 280.442 Z " fill="rgb(255,0,0)"/></g><path d=" M 271.927 442.341 L 239.732 443.057 L 229 453.789 L 252.61 477.398 L 246.171 456.65 L 271.211 456.65 L 278.366 463.805 L 278.366 475.252 L 268.35 485.268 L 287.667 478.114 L 287.667 462.374 L 306.984 443.057 L 317 408 L 291.244 408.715 L 286.236 432.325 L 271.927 442.341 Z " fill="rgb(255,0,0)"/><path d=" M 533.073 442.341 L 565.268 443.057 L 576 453.789 L 552.39 477.398 L 558.829 456.65 L 533.789 456.65 L 526.634 463.805 L 526.634 475.252 L 536.65 485.268 L 517.333 478.114 L 517.333 462.374 L 498.016 443.057 L 488 408 L 513.756 408.715 L 518.764 432.325 L 533.073 442.341 Z " fill="rgb(255,0,0)"/></g></svg>