<?xml version="1.0" standalone="no"?><!-- Generator: Gravit.io --><svg xmlns="http://www.w3.org/2000/svg" xmlns:xlink="http://www.w3.org/1999/xlink" style="isolation:isolate" viewBox="0 0 800 600" width="800" height="600"><defs><clipPath id="_clipPath_YYuf9q5rR0R4uBLXdmnncottAnOx1lm0"><rect width="800" height="600"/></clipPath></defs><g transform="translate(0.000000,406.000000) scale(0.100000,-0.100000)"
fill="#000000" stroke="none">
<path d="M2530 4049 c-677 -56 -1287 -454 -1613 -1052 -68 -126 -140 -295
-152 -358 l-7 -36 54 -6 c112 -14 114 -13 134 46 119 362 390 707 739 942 98
66 311 168 435 209 533 176 1136 96 1595 -212 329 -221 572 -521 715 -884 42
-105 44 -108 74 -108 64 0 136 13 136 24 0 22 -87 241 -129 324 -255 507 -712
885 -1254 1041 -238 68 -479 91 -727 70z"/>
<path d="M2490 3849 c-389 -48 -737 -213 -1019 -484 -157 -152 -273 -308 -370
-501 -57 -113 -124 -291 -116 -305 12 -19 53 -10 60 14 55 180 200 449 318
587 287 338 616 533 1037 615 117 23 360 31 490 16 649 -76 1211 -527 1434
-1152 33 -92 47 -108 81 -95 16 6 5 49 -51 188 -229 572 -747 996 -1349 1103
-107 20 -408 28 -515 14z"/>
<path d="M2644 3433 c-25 -54 -46 -99 -47 -100 -1 -1 -51 -8 -110 -16 -60 -8
-112 -18 -115 -22 -4 -4 31 -41 76 -83 l84 -77 -20 -110 c-11 -61 -18 -112
-15 -115 3 -3 49 18 104 47 l99 51 99 -51 c55 -29 101 -50 104 -47 3 3 -4 55
-15 115 l-20 110 83 77 c46 42 81 79 77 83 -5 6 -181 34 -214 35 -6 0 -32 45
-57 100 -25 55 -51 100 -57 100 -6 0 -32 -44 -56 -97z"/>
<path d="M3431 3163 l-64 -46 -69 22 c-38 13 -72 20 -75 18 -2 -3 5 -37 18
-75 l22 -69 -47 -67 -48 -66 84 0 83 0 27 -43 c15 -23 36 -53 47 -66 l19 -25
25 78 24 79 77 24 c42 13 74 28 71 32 -2 5 -32 26 -64 47 l-60 39 -3 82 -3 82
-64 -46z"/>
<path d="M1888 3118 l3 -83 -61 -45 c-33 -24 -60 -47 -60 -50 0 -3 34 -14 77
-25 l76 -20 24 -65 c14 -36 28 -69 32 -73 4 -4 27 21 51 58 41 62 44 65 84 66
22 0 58 3 79 7 l37 7 -51 62 -50 62 21 71 c12 40 19 74 17 76 -3 3 -33 -6 -68
-20 -34 -15 -68 -26 -76 -26 -7 0 -39 18 -70 40 -32 22 -60 40 -63 40 -3 0 -4
-37 -2 -82z"/>
<path d="M2921 2750 c-18 -4 -47 -22 -64 -39 -26 -25 -31 -40 -35 -88 -4 -62
-8 -53 120 -293 24 -46 24 -96 -1 -110 -27 -14 -62 -12 -85 5 -31 23 -36 18
-36 -30 0 -40 3 -47 26 -55 14 -6 46 -10 72 -10 93 0 150 66 139 162 -6 48
-31 104 -97 218 -70 120 -61 168 32 157 l48 -6 0 39 c0 21 -3 41 -7 43 -19 10
-81 14 -112 7z"/>
<path d="M2120 2445 l0 -305 130 0 130 0 0 40 0 40 -80 0 -80 0 0 95 0 95 70
0 70 0 0 45 0 45 -70 0 -70 0 0 85 0 85 75 0 75 0 0 40 0 40 -125 0 -125 0 0
-305z"/>
<path d="M2506 2468 c-33 -156 -62 -293 -64 -306 -4 -22 -2 -23 44 -20 48 3
48 4 56 43 18 91 13 85 77 85 l58 0 7 -50 c10 -77 13 -80 62 -80 29 0 44 4 44
13 0 6 -27 140 -60 296 -33 157 -60 288 -60 293 0 4 -24 8 -53 8 l-52 0 -59
-282z"/>
<path d="M3090 2710 l0 -40 50 0 50 0 0 -265 0 -265 50 0 50 0 0 265 0 265 50
0 50 0 0 40 0 40 -150 0 -150 0 0 -40z"/>
<path d="M0 2556 c0 -3 73 -55 163 -115 l163 -108 364 -24 c334 -22 356 -25
265 -30 -55 -4 -201 -8 -325 -9 -124 -1 -259 -5 -300 -9 l-75 -6 100 -56 c55
-31 131 -73 169 -94 l69 -38 326 5 326 5 -327 -37 c-180 -20 -330 -39 -333
-41 -3 -3 75 -41 172 -84 l177 -77 254 27 c139 15 255 26 257 23 2 -2 -108
-26 -245 -53 -138 -27 -250 -52 -250 -55 0 -3 82 -34 183 -68 l182 -63 218 43
217 42 0 90 c0 161 40 245 139 289 35 15 57 18 103 13 l58 -6 0 61 c0 59 -2
63 -46 113 -26 28 -56 70 -67 93 -18 37 -25 43 -61 48 -23 2 -423 29 -891 60
-467 30 -880 58 -917 61 -38 3 -68 3 -68 0z"/>
<path d="M4412 2495 c-507 -34 -924 -64 -926 -66 -2 -2 -13 -22 -24 -45 -12
-23 -46 -67 -76 -100 -53 -56 -56 -61 -56 -111 l0 -53 88 0 88 0 34 -184 c30
-165 35 -185 54 -190 12 -2 127 -25 256 -51 l234 -46 183 63 c101 34 183 65
183 68 0 3 -112 28 -250 55 -137 27 -247 51 -245 53 2 3 118 -8 257 -23 l254
-27 177 77 c97 43 175 81 172 83 -3 3 -155 22 -338 43 l-332 37 331 -6 331 -5
69 38 c38 21 114 63 169 94 l100 56 -75 6 c-41 4 -176 8 -300 9 -124 1 -270 5
-325 9 -91 5 -69 8 265 30 l364 24 163 108 c90 60 163 111 163 114 0 7 10 8
-988 -60z"/>
<path d="M1940 2070 c-52 -9 -78 -30 -103 -80 -21 -42 -22 -58 -22 -255 0
-237 7 -267 75 -313 30 -20 44 -23 97 -20 94 6 133 53 133 163 l0 55 -50 0
-50 0 0 -48 c0 -75 -37 -113 -74 -76 -24 24 -24 455 0 479 36 36 74 -6 74 -82
l0 -43 44 0 c41 0 44 2 50 31 10 49 7 75 -10 119 -23 58 -84 84 -164 70z"/>
<path d="M2190 1735 l0 -335 55 0 55 0 0 155 0 155 55 0 55 0 0 -155 0 -155
55 0 55 0 0 335 0 335 -55 0 -55 0 0 -140 0 -140 -55 0 -55 0 0 140 0 140 -55
0 -55 0 0 -335z"/>
<path d="M2620 1735 l0 -335 55 0 55 0 0 335 0 335 -55 0 -55 0 0 -335z"/>
<path d="M2840 1735 l0 -335 45 0 45 0 2 193 3 192 70 -190 70 -190 48 -3 47
-3 0 335 0 336 -50 0 -50 0 -2 -195 -3 -195 -70 195 -70 195 -42 0 -43 0 0
-335z"/>
<path d="M3340 2063 c0 -3 -27 -152 -60 -330 -33 -177 -60 -325 -60 -328 0 -3
25 -5 55 -5 l54 0 6 38 c14 87 10 82 70 82 l54 0 6 -37 c14 -88 10 -83 71 -83
53 0 56 1 51 23 -3 12 -32 163 -63 335 l-58 312 -63 0 c-35 0 -63 -3 -63 -7z"/>
<path d="M696 1723 c42 -249 104 -439 206 -632 308 -584 864 -976 1523 -1072
116 -17 423 -17 545 0 215 29 427 94 614 188 231 115 368 214 551 397 232 232
391 490 491 795 36 109 89 349 79 359 -11 12 -174 -48 -179 -66 -2 -9 -10 -44
-16 -77 -20 -103 -87 -287 -146 -405 -273 -544 -756 -900 -1374 -1016 -145
-27 -445 -25 -610 4 -580 104 -1077 477 -1343 1009 -60 119 -124 299 -151 425
l-17 77 -77 25 c-102 34 -104 34 -96 -11z"/>
<path d="M4437 1738 c-17 -6 -29 -19 -33 -36 -38 -169 -72 -273 -131 -408 -44
-100 -47 -105 -71 -99 -14 3 -40 16 -56 28 l-31 22 39 5 c22 3 41 11 44 19 4
11 -6 12 -52 7 -37 -5 -56 -4 -56 3 0 6 14 11 30 11 20 0 30 5 30 15 0 11 -7
14 -27 10 l-28 -5 30 14 c17 8 41 26 54 40 32 34 19 50 -29 36 -53 -15 -74
-12 -85 12 -15 32 -37 36 -30 5 6 -22 3 -25 -36 -31 -28 -4 -45 -3 -49 5 -5 6
-12 -2 -19 -22 -18 -53 -15 -58 29 -54 22 2 40 -1 40 -6 0 -5 -12 -9 -26 -9
-14 0 -23 -4 -19 -10 3 -5 15 -10 26 -10 10 0 19 -4 19 -10 0 -5 -25 -10 -55
-10 -30 0 -55 -4 -55 -10 0 -11 12 -13 49 -10 32 2 20 -14 -35 -46 -24 -14
-44 -30 -44 -35 0 -14 11 -11 68 21 l53 29 -2 -32 c-4 -40 9 -66 22 -46 5 8 9
26 9 42 0 15 5 27 10 27 19 0 10 -47 -13 -72 -12 -13 -37 -31 -55 -39 -31 -13
-43 -29 -22 -29 22 0 78 29 97 49 l20 21 41 -30 c43 -31 62 -37 62 -21 0 12
-28 41 -39 41 -5 0 -4 20 2 45 10 42 11 43 24 25 9 -12 26 -20 44 -20 16 0 29
-3 29 -6 0 -4 -30 -52 -66 -108 -228 -347 -532 -583 -916 -711 -206 -68 -351
-88 -578 -82 -204 6 -325 27 -501 87 -554 188 -980 655 -1128 1233 -25 98 -32
114 -56 125 -14 8 -29 12 -31 9 -7 -6 23 -140 52 -237 91 -298 253 -561 484
-783 248 -239 534 -391 879 -465 114 -24 146 -26 341 -27 275 0 418 25 655
117 512 197 924 655 1074 1194 31 114 55 224 49 228 -1 2 -15 -1 -31 -6z"/>
<path d="M3580 1723 c0 -9 27 -157 35 -190 3 -12 14 -24 24 -28 23 -7 406 84
394 95 -9 8 -423 130 -441 130 -7 0 -12 -3 -12 -7z"/>
<path d="M1543 1657 c-94 -29 -174 -55 -178 -59 -3 -3 82 -27 190 -53 108 -26
197 -46 199 -44 2 2 1 50 -2 107 -4 85 -7 102 -21 101 -9 0 -93 -24 -188 -52z"/>
<path d="M2280 1308 c-48 -25 -60 -70 -60 -216 0 -188 17 -222 115 -222 35 0
52 6 70 24 32 32 37 68 33 229 -3 132 -4 138 -29 163 -31 30 -92 41 -129 22z
m78 -79 c9 -17 12 -63 10 -151 -2 -104 -6 -130 -20 -144 -14 -14 -20 -15 -32
-4 -13 10 -16 39 -16 159 0 102 4 151 12 159 16 16 30 11 46 -19z"/>
<path d="M2500 1091 l0 -221 35 0 35 0 0 63 0 63 45 12 c52 14 74 41 87 110
11 59 -6 143 -33 168 -15 14 -41 20 -95 22 l-74 4 0 -221z"/>
<path d="M2750 1090 l0 -220 85 0 85 0 0 30 c0 29 -1 30 -50 30 l-50 0 0 70 0
70 40 0 c38 0 40 2 40 30 0 28 -2 30 -40 30 l-40 0 0 60 0 60 50 0 c49 0 50 1
50 30 l0 30 -85 0 -85 0 0 -220z"/>
<path d="M2960 1091 l0 -221 36 0 36 0 -4 125 c-2 68 -3 123 -2 122 2 -1 23
-56 47 -122 43 -116 46 -120 76 -123 l31 -3 0 220 0 221 -36 0 -37 0 5 -132 5
-131 -46 129 c-45 127 -47 129 -79 132 l-32 3 0 -220z"/>
<path d="M3675 1084 c-11 -2 -55 -6 -98 -9 -64 -6 -76 -9 -67 -20 8 -9 22 -12
41 -8 29 5 29 5 29 -39 0 -43 -2 -46 -31 -52 -17 -3 -47 -6 -66 -6 -31 0 -34
-2 -23 -15 10 -12 24 -14 61 -9 44 6 49 4 49 -12 -1 -35 -37 -100 -71 -127
-42 -33 -31 -46 15 -18 41 26 72 72 81 123 5 25 13 38 28 42 49 13 49 12 46
-91 -3 -70 -1 -97 9 -100 9 -4 12 20 12 96 l0 101 39 0 c53 0 75 9 61 25 -7 8
-26 11 -55 7 l-45 -5 2 47 c3 45 4 46 36 46 22 0 32 5 32 15 0 15 -30 18 -85
9z"/>
<path d="M1750 1050 c0 -12 -7 -34 -15 -50 -14 -28 -20 -30 -71 -30 -40 0 -54
-3 -51 -12 3 -8 21 -12 51 -11 50 1 50 1 9 -55 -32 -43 -23 -54 38 -46 l49 7
0 -62 c0 -58 -1 -61 -20 -49 -32 20 -35 0 -5 -32 46 -48 54 -41 57 58 l3 87
45 5 c58 6 53 26 -6 23 -43 -1 -45 0 -40 22 4 14 1 27 -6 31 -18 11 24 22 90
23 52 1 63 9 39 30 -9 7 -24 8 -48 1 -18 -6 -51 -10 -71 -10 l-37 0 17 29 c14
24 14 31 3 45 -18 22 -31 20 -31 -4z"/>
<path d="M2176 736 c6 -70 5 -74 -15 -81 -13 -4 -25 -4 -28 -1 -4 3 2 6 11 6
10 0 16 6 13 13 -2 7 -17 11 -35 9 -32 -3 -32 -3 -32 40 0 39 -13 68 -30 68
-3 0 -4 -47 -2 -105 4 -104 -4 -129 -27 -88 -17 31 -21 9 -13 -72 4 -48 12
-80 20 -83 6 -2 12 3 12 12 0 11 9 16 28 16 37 0 47 9 49 50 2 19 4 44 5 55 2
15 -3 20 -19 19 -19 0 -23 5 -23 28 0 31 24 39 34 12 4 -11 14 -14 35 -9 27 6
29 4 34 -32 4 -33 1 -41 -26 -65 -36 -32 -29 -49 11 -26 28 17 28 16 55 -18
29 -35 83 -70 90 -56 7 13 -5 112 -13 112 -5 0 -10 -15 -12 -32 -4 -42 -17
-41 -46 2 l-22 34 31 32 c24 24 29 37 24 54 -5 14 -2 25 6 30 10 7 10 12 1 22
-6 8 -9 23 -6 34 4 16 -1 24 -26 34 -43 18 -49 5 -15 -30 32 -33 31 -35 -8
-45 -24 -7 -27 -5 -29 21 -1 16 -1 42 0 58 2 28 -12 56 -30 56 -5 0 -6 -31 -2
-74z"/>
<path d="M2580 691 c0 -10 -18 -54 -39 -97 -38 -75 -44 -101 -19 -76 19 19 48
14 48 -8 0 -15 -7 -20 -26 -20 -16 0 -24 -5 -21 -12 2 -7 14 -13 27 -12 21 1
22 -2 17 -53 -7 -63 8 -70 53 -24 18 18 43 30 65 33 31 3 35 1 35 -18 0 -17
-8 -23 -42 -28 -27 -4 -38 -10 -31 -17 13 -13 185 0 180 15 -2 6 -20 10 -41
10 -31 -1 -36 2 -36 21 0 19 7 24 46 30 38 5 43 9 33 21 -7 9 -20 12 -32 8
-16 -5 -19 -3 -14 11 4 9 7 21 7 26 0 5 16 9 36 9 39 0 44 23 7 28 -32 5 -37
41 -7 48 20 5 22 9 13 20 -7 8 -20 12 -30 9 -11 -3 -28 -8 -39 -11 -16 -4 -20
-1 -20 20 0 19 6 26 30 31 32 7 35 12 21 34 -7 11 -13 12 -23 4 -19 -17 -108
-49 -150 -56 -36 -5 -37 -5 -26 18 11 25 5 55 -12 55 -5 0 -10 -9 -10 -19z"/>
</g></svg>
